<svg width="131" height="145" viewBox="0 0 131 145" fill="none" xmlns="http://www.w3.org/2000/svg">
<path d="M54.6267 91.3274L59.6814 110.191C59.7348 110.217 59.7881 110.245 59.8406 110.276L67.2263 114.54C68.6608 115.369 69.1523 117.203 68.324 118.638L64.0603 126.024C64.0301 126.076 63.9974 126.126 63.9646 126.176L66.1423 134.306C68.1476 134.577 69.8701 136.057 70.3484 138.146C70.9645 140.837 69.282 143.519 66.5906 144.135C63.8988 144.751 61.2167 143.069 60.6003 140.377C60.1211 138.284 61.0323 136.197 62.7273 135.082L60.6726 127.413C60.4298 127.347 60.1899 127.253 59.9617 127.121L52.5769 122.858C51.142 122.029 50.6498 120.194 51.4783 118.759L55.7429 111.374C55.8748 111.146 56.0335 110.943 56.2107 110.764L50.7126 90.2454L54.6267 91.3274ZM43.3308 75.0989L32.6902 85.7395C32.7284 85.9414 32.7475 86.15 32.7429 86.3636L32.5056 97.5198C32.4703 99.1761 31.0994 100.49 29.4431 100.455L18.2869 100.218C18.263 100.218 18.2393 100.215 18.2156 100.214L11.1736 107.256C11.7467 109.045 11.2835 111.084 9.81616 112.448C7.79323 114.327 4.62944 114.211 2.74976 112.188C0.870348 110.165 0.986729 107.002 3.00952 105.122C4.67873 103.571 7.12378 103.38 8.98413 104.496L15.4607 98.0208C15.3844 97.7456 15.3449 97.4548 15.3513 97.1546L15.5886 85.9993C15.6238 84.3429 16.9948 83.0287 18.6511 83.0638L29.8074 83.3001C29.9245 83.3026 30.0398 83.3129 30.1531 83.3284L42.3113 71.1692L43.3308 75.0989ZM102.708 89.3929C104.103 88.5001 105.959 88.9083 106.851 90.304L112.098 98.5052C112.273 98.778 112.395 99.0692 112.472 99.3665L121.095 101.677C122.305 99.9431 124.538 99.1049 126.667 99.76C129.306 100.572 130.787 103.371 129.975 106.01C129.163 108.649 126.365 110.131 123.725 109.319C121.753 108.712 120.428 106.996 120.222 105.066L111.19 102.646C111.189 102.647 111.188 102.648 111.187 102.649L102.986 107.896C101.59 108.789 99.7344 108.38 98.8416 106.985L93.5955 98.7835C93.4019 98.4809 93.2725 98.1557 93.198 97.8245L72.5291 92.2864L75.4226 89.4388L94.6013 94.5774L102.708 89.3929ZM119.165 32.9895C121.188 31.1099 124.352 31.2264 126.231 33.2493C128.111 35.2722 127.994 38.4361 125.971 40.3157C124.324 41.8463 121.92 42.0525 120.069 40.9837L112.786 48.2679C112.87 48.5358 112.919 48.8196 112.924 49.1145L113.105 60.262C113.132 61.9186 111.811 63.2839 110.154 63.3108L99.0066 63.4915C98.5774 63.4985 98.1684 63.4135 97.7966 63.2571L85.0847 75.9681L84.0652 72.0384L95.9509 60.1526L95.7771 49.3929C95.7503 47.7365 97.071 46.3722 98.7273 46.345L109.876 46.1634C109.897 46.163 109.919 46.1633 109.94 46.1634L117.837 38.2679C117.22 36.4581 117.674 34.3751 119.165 32.9895ZM0.222414 40.5696C1.03449 37.9303 3.83213 36.449 6.47144 37.261C8.43979 37.8667 9.76225 39.5771 9.97144 41.5022L18.3347 43.7425C18.4233 43.6809 18.5162 43.6234 18.613 43.5706L28.4392 38.2122C29.8938 37.419 31.7163 37.9558 32.5095 39.4104L37.7019 48.9319L54.657 53.4749L51.7625 56.3225L37.5916 52.5266C37.3475 52.8373 37.0385 53.1058 36.6697 53.3069L26.8435 58.6653C25.3889 59.4582 23.5673 58.9216 22.7742 57.4671L17.4158 47.6409C17.3122 47.4509 17.2318 47.2544 17.1726 47.055L9.1062 44.8938C7.8978 46.633 5.66335 47.4745 3.53101 46.8186C0.891689 46.0066 -0.589657 43.2089 0.222414 40.5696ZM59.0007 0.127233C61.6924 -0.489127 64.3744 1.19349 64.991 3.88505C65.4139 5.73181 64.7543 7.57376 63.4294 8.74735L65.6482 17.0266C65.8466 17.0916 66.0416 17.178 66.2292 17.2874L75.8982 22.9241C77.3296 23.7585 77.8137 25.5953 76.9792 27.0266L71.3425 36.6956C71.2515 36.8517 71.148 36.9961 71.0349 37.1292L75.9626 55.5208L72.0486 54.4388L67.6365 37.97C67.5018 37.9159 67.3691 37.8519 67.24 37.7766L57.571 32.1399C56.1397 31.3055 55.6556 29.4688 56.49 28.0374L62.1267 18.3675C62.1832 18.2707 62.2441 18.1781 62.3093 18.0901L60.1423 10.0013C57.8512 10.015 55.7756 8.44371 55.2429 6.11747C54.6266 3.42583 56.3091 0.743698 59.0007 0.127233Z" fill="#4D967E"/>
<path d="M58.6896 54.8537L67.7508 57.2046L76.7735 59.6992L79.2682 68.7219L81.6191 77.7831L75.0525 84.4549L68.3807 91.0215L59.3195 88.6705L50.2968 86.1759L47.8022 77.1532L45.4513 68.092L52.0178 61.4202L58.6896 54.8537Z" fill="#4D967E"/>
</svg>
